<svg id="svg" version="1.1" xmlns="http://www.w3.org/2000/svg" xmlns:xlink="http://www.w3.org/1999/xlink" width="400" height="400" viewBox="0, 0, 400,400"><g id="svgg"><path id="path0" d="M206.900 59.810 C 206.405 60.339,206.000 61.008,206.000 61.297 C 206.000 61.587,205.640 62.083,205.200 62.400 C 204.760 62.717,204.400 63.297,204.400 63.688 C 204.400 64.080,204.220 64.400,204.000 64.400 C 203.780 64.400,203.600 64.720,203.600 65.112 C 203.600 65.503,203.240 66.083,202.800 66.400 C 202.360 66.717,202.000 67.297,202.000 67.688 C 202.000 68.080,201.820 68.400,201.600 68.400 C 201.380 68.400,201.200 68.760,201.200 69.200 C 201.200 69.640,201.020 70.000,200.800 70.000 C 200.580 70.000,200.400 70.360,200.400 70.800 C 200.400 71.240,200.220 71.600,200.000 71.600 C 199.780 71.600,199.600 71.960,199.600 72.400 C 199.600 72.840,199.420 73.200,199.200 73.200 C 198.980 73.200,198.800 73.560,198.800 74.000 C 198.800 74.440,198.620 74.800,198.400 74.800 C 198.180 74.800,198.000 75.160,198.000 75.600 C 198.000 76.040,197.820 76.400,197.600 76.400 C 197.380 76.400,197.200 76.760,197.200 77.200 C 197.200 77.640,197.020 78.000,196.800 78.000 C 196.580 78.000,196.400 78.360,196.400 78.800 C 196.400 79.240,196.220 79.600,196.000 79.600 C 195.780 79.600,195.600 80.140,195.600 80.800 C 195.600 81.460,195.420 82.000,195.200 82.000 C 194.980 82.000,194.800 82.349,194.800 82.776 C 194.800 83.203,194.620 83.664,194.400 83.800 C 194.180 83.936,194.000 84.476,194.000 85.000 C 194.000 85.524,193.820 86.064,193.600 86.200 C 193.380 86.336,193.200 87.067,193.200 87.824 C 193.200 88.581,193.020 89.200,192.800 89.200 C 192.580 89.200,192.400 89.729,192.400 90.376 C 192.400 91.023,192.220 91.664,192.000 91.800 C 191.780 91.936,191.600 92.847,191.600 93.824 C 191.600 94.801,191.420 95.600,191.200 95.600 C 190.978 95.600,190.800 96.667,190.800 98.000 C 190.800 99.333,190.622 100.400,190.400 100.400 C 190.144 100.400,190.000 104.133,190.000 110.800 C 190.000 117.467,190.144 121.200,190.400 121.200 C 190.622 121.200,190.800 122.267,190.800 123.600 C 190.800 127.151,191.652 126.875,194.810 122.300 C 198.404 117.092,208.847 101.733,211.876 97.200 C 213.272 95.110,214.572 93.203,214.765 92.962 C 216.148 91.234,216.985 87.600,216.000 87.600 C 215.780 87.600,215.600 87.240,215.600 86.800 C 215.600 86.360,215.420 86.000,215.200 86.000 C 214.980 86.000,214.800 85.460,214.800 84.800 C 214.800 84.140,214.620 83.600,214.400 83.600 C 214.180 83.600,214.000 83.060,214.000 82.400 C 214.000 81.740,213.820 81.200,213.600 81.200 C 213.380 81.200,213.200 80.660,213.200 80.000 C 213.200 79.340,213.020 78.800,212.800 78.800 C 212.580 78.800,212.400 78.080,212.400 77.200 C 212.400 76.320,212.220 75.600,212.000 75.600 C 211.780 75.600,211.600 74.880,211.600 74.000 C 211.600 73.120,211.420 72.400,211.200 72.400 C 210.980 72.400,210.800 71.421,210.800 70.224 C 210.800 69.027,210.620 67.936,210.400 67.800 C 210.180 67.664,210.000 66.134,210.000 64.400 C 210.000 62.666,209.820 61.136,209.600 61.000 C 209.380 60.864,209.200 60.313,209.200 59.776 C 209.200 58.504,208.108 58.520,206.900 59.810 M223.108 103.500 C 222.769 103.885,222.392 104.830,222.270 105.600 C 222.060 106.928,221.554 109.447,220.782 113.000 C 220.591 113.880,220.231 115.590,219.982 116.800 C 219.733 118.010,219.373 119.720,219.182 120.600 C 218.991 121.480,218.631 123.190,218.382 124.400 C 218.133 125.610,217.773 127.320,217.582 128.200 C 217.391 129.080,217.031 130.790,216.782 132.000 C 216.533 133.210,216.165 134.965,215.965 135.900 C 215.764 136.835,215.436 138.365,215.235 139.300 C 215.035 140.235,214.667 141.990,214.418 143.200 C 214.169 144.410,213.785 146.210,213.564 147.200 C 213.344 148.190,213.000 149.810,212.800 150.800 C 212.600 151.790,212.240 153.500,212.000 154.600 C 211.760 155.700,211.400 157.410,211.200 158.400 C 211.000 159.390,210.626 161.100,210.369 162.200 C 209.637 165.333,209.796 167.930,210.774 168.778 C 211.228 169.171,211.600 169.716,211.600 169.986 C 211.600 170.257,212.140 170.983,212.800 171.600 C 213.460 172.217,214.000 172.937,214.000 173.200 C 214.000 173.463,214.540 174.183,215.200 174.800 C 215.860 175.417,216.400 176.137,216.400 176.400 C 216.400 176.663,216.940 177.383,217.600 178.000 C 218.260 178.617,218.800 179.327,218.800 179.579 C 218.800 179.830,219.287 180.523,219.882 181.118 L 220.963 182.200 245.520 182.312 C 267.521 182.412,270.052 182.488,269.838 183.045 C 269.707 183.386,269.600 183.797,269.600 183.957 C 269.600 184.118,269.278 184.598,268.884 185.025 C 268.490 185.451,265.579 189.670,262.416 194.400 C 259.253 199.130,256.549 203.090,256.407 203.200 C 256.265 203.310,253.565 207.270,250.407 212.000 C 247.249 216.730,244.524 220.695,244.351 220.812 C 243.806 221.180,243.445 224.400,243.949 224.400 C 244.209 224.400,244.400 225.079,244.400 226.000 C 244.400 226.880,244.580 227.600,244.800 227.600 C 245.020 227.600,245.200 228.320,245.200 229.200 C 245.200 230.080,245.380 230.800,245.600 230.800 C 245.820 230.800,246.000 231.700,246.000 232.800 C 246.000 233.900,246.180 234.800,246.400 234.800 C 246.625 234.800,246.800 235.925,246.800 237.376 C 246.800 238.793,246.980 240.064,247.200 240.200 C 247.420 240.336,247.600 242.057,247.600 244.024 C 247.600 246.141,247.763 247.600,248.000 247.600 C 248.253 247.600,248.400 250.525,248.400 255.576 C 248.400 260.463,248.245 263.649,248.000 263.800 C 247.779 263.936,247.600 265.730,247.600 267.800 C 247.600 269.870,247.421 271.664,247.200 271.800 C 246.980 271.936,246.800 273.207,246.800 274.624 C 246.800 276.075,246.625 277.200,246.400 277.200 C 246.180 277.200,246.000 278.100,246.000 279.200 C 246.000 280.300,245.820 281.200,245.600 281.200 C 245.380 281.200,245.200 281.920,245.200 282.800 C 245.200 283.680,245.020 284.400,244.800 284.400 C 244.580 284.400,244.400 285.120,244.400 286.000 C 244.400 286.880,244.220 287.600,244.000 287.600 C 243.780 287.600,243.600 288.140,243.600 288.800 C 243.600 289.460,243.420 290.000,243.200 290.000 C 242.980 290.000,242.800 290.540,242.800 291.200 C 242.800 291.860,242.620 292.400,242.400 292.400 C 242.180 292.400,242.000 292.940,242.000 293.600 C 242.000 294.260,241.820 294.800,241.600 294.800 C 241.380 294.800,241.200 295.340,241.200 296.000 C 241.200 297.909,242.705 297.605,245.161 295.200 C 246.285 294.100,247.401 293.200,247.642 293.200 C 247.882 293.200,248.583 292.660,249.200 292.000 C 249.817 291.340,250.526 290.800,250.776 290.800 C 251.026 290.800,252.837 289.180,254.800 287.200 C 256.763 285.220,258.548 283.600,258.767 283.600 C 259.276 283.600,266.000 276.893,266.000 276.386 C 266.000 276.177,267.260 274.731,268.800 273.172 C 270.340 271.614,271.600 270.158,271.600 269.938 C 271.600 269.718,272.320 268.846,273.200 268.000 C 274.080 267.154,274.800 266.218,274.800 265.920 C 274.800 265.621,275.160 265.117,275.600 264.800 C 276.040 264.483,276.400 264.020,276.400 263.771 C 276.400 263.522,276.940 262.754,277.600 262.063 C 278.260 261.372,278.800 260.536,278.800 260.204 C 278.800 259.872,278.980 259.600,279.200 259.600 C 279.420 259.600,279.600 259.280,279.600 258.888 C 279.600 258.497,279.960 257.917,280.400 257.600 C 280.840 257.283,281.200 256.786,281.200 256.495 C 281.200 256.204,281.560 255.580,282.000 255.108 C 282.440 254.636,282.800 254.013,282.800 253.725 C 282.800 253.436,282.980 253.200,283.200 253.200 C 283.420 253.200,283.600 252.840,283.600 252.400 C 283.600 251.960,283.780 251.600,284.000 251.600 C 284.220 251.600,284.400 251.240,284.400 250.800 C 284.400 250.360,284.580 250.000,284.800 250.000 C 285.020 250.000,285.200 249.640,285.200 249.200 C 285.200 248.760,285.380 248.400,285.600 248.400 C 285.820 248.400,286.000 248.040,286.000 247.600 C 286.000 247.160,286.180 246.800,286.400 246.800 C 286.620 246.800,286.800 246.440,286.800 246.000 C 286.800 245.560,286.980 245.200,287.200 245.200 C 287.420 245.200,287.600 244.840,287.600 244.400 C 287.600 243.960,287.780 243.600,288.000 243.600 C 288.220 243.600,288.400 243.240,288.400 242.800 C 288.400 242.360,288.580 242.000,288.800 242.000 C 289.020 242.000,289.200 241.640,289.200 241.200 C 289.200 240.760,289.380 240.400,289.600 240.400 C 289.820 240.400,290.000 239.860,290.000 239.200 C 290.000 238.540,290.180 238.000,290.400 238.000 C 290.620 238.000,290.800 237.460,290.800 236.800 C 290.800 236.140,290.980 235.600,291.200 235.600 C 291.420 235.600,291.600 235.251,291.600 234.824 C 291.600 234.397,291.780 233.936,292.000 233.800 C 292.220 233.664,292.400 232.933,292.400 232.176 C 292.400 231.419,292.580 230.800,292.800 230.800 C 293.020 230.800,293.200 230.260,293.200 229.600 C 293.200 228.940,293.380 228.400,293.600 228.400 C 293.820 228.400,294.000 227.680,294.000 226.800 C 294.000 225.920,294.180 225.200,294.400 225.200 C 294.620 225.200,294.800 224.311,294.800 223.224 C 294.800 222.137,294.980 221.136,295.200 221.000 C 295.420 220.864,295.600 219.604,295.600 218.200 C 295.600 216.796,295.780 215.536,296.000 215.400 C 296.247 215.248,296.400 211.863,296.400 206.576 C 296.400 201.125,296.254 198.000,296.000 198.000 C 295.775 198.000,295.600 196.875,295.600 195.424 C 295.600 194.007,295.420 192.736,295.200 192.600 C 294.980 192.464,294.800 191.643,294.800 190.776 C 294.800 189.909,294.620 189.200,294.400 189.200 C 294.180 189.200,294.000 188.480,294.000 187.600 C 294.000 186.720,293.820 186.000,293.600 186.000 C 293.380 186.000,293.200 185.460,293.200 184.800 C 293.200 184.140,293.020 183.600,292.800 183.600 C 292.580 183.600,292.400 183.060,292.400 182.400 C 292.400 181.740,292.220 181.200,292.000 181.200 C 291.780 181.200,291.600 180.840,291.600 180.400 C 291.600 179.960,291.420 179.600,291.200 179.600 C 290.980 179.600,290.800 179.161,290.800 178.624 C 290.800 178.087,290.620 177.536,290.400 177.400 C 290.180 177.264,290.000 176.803,290.000 176.376 C 290.000 175.949,289.820 175.600,289.600 175.600 C 289.380 175.600,289.200 175.240,289.200 174.800 C 289.200 174.360,289.020 174.000,288.800 174.000 C 288.580 174.000,288.400 173.764,288.400 173.475 C 288.400 173.187,288.040 172.564,287.600 172.092 C 287.160 171.620,286.800 170.996,286.800 170.705 C 286.800 170.414,286.440 169.917,286.000 169.600 C 285.560 169.283,285.200 168.743,285.200 168.400 C 285.200 168.057,284.840 167.517,284.400 167.200 C 283.960 166.883,283.600 166.375,283.600 166.072 C 283.600 165.769,283.060 165.017,282.400 164.400 C 281.740 163.783,281.200 163.078,281.200 162.831 C 281.200 162.284,258.534 139.600,257.987 139.600 C 257.496 139.600,233.200 115.333,233.200 114.842 C 233.200 114.644,232.300 113.562,231.200 112.439 C 230.100 111.315,229.200 110.199,229.200 109.958 C 229.200 109.718,228.660 109.017,228.000 108.400 C 227.340 107.783,226.800 107.063,226.800 106.800 C 226.800 106.537,226.260 105.817,225.600 105.200 C 224.940 104.583,224.400 103.791,224.400 103.440 C 224.400 102.603,223.876 102.627,223.108 103.500 " stroke="none" fill="#54abfb" fill-rule="evenodd"></path><path id="path1" d="M211.024 98.545 C 209.937 100.115,206.419 105.270,203.205 110.000 C 193.374 124.473,192.276 126.000,191.699 126.000 C 190.989 126.000,190.000 126.980,190.000 127.683 C 190.000 127.980,189.640 128.483,189.200 128.800 C 188.760 129.117,188.400 129.657,188.400 130.000 C 188.400 130.343,188.040 130.883,187.600 131.200 C 187.160 131.517,186.800 132.057,186.800 132.400 C 186.800 132.743,186.440 133.283,186.000 133.600 C 185.560 133.917,185.200 134.457,185.200 134.800 C 185.200 135.143,184.840 135.683,184.400 136.000 C 183.960 136.317,183.600 136.857,183.600 137.200 C 183.600 137.543,183.240 138.083,182.800 138.400 C 182.360 138.717,182.000 139.209,182.000 139.492 C 182.000 139.775,181.460 140.572,180.800 141.263 C 180.140 141.954,179.600 142.722,179.600 142.971 C 179.600 143.220,179.240 143.683,178.800 144.000 C 178.360 144.317,178.000 144.857,178.000 145.200 C 178.000 145.543,177.640 146.083,177.200 146.400 C 176.760 146.717,176.400 147.257,176.400 147.600 C 176.400 147.943,176.040 148.483,175.600 148.800 C 175.160 149.117,174.800 149.657,174.800 150.000 C 174.800 150.343,174.440 150.883,174.000 151.200 C 173.560 151.517,173.200 152.031,173.200 152.341 C 173.200 152.652,172.869 153.197,172.465 153.553 C 172.061 153.909,171.615 154.786,171.475 155.502 C 171.233 156.735,167.876 161.864,153.606 182.800 C 150.232 187.750,144.756 195.789,141.436 200.664 C 138.116 205.539,134.275 211.157,132.900 213.147 C 131.525 215.137,130.400 216.952,130.400 217.180 C 130.400 217.462,140.608 217.628,162.300 217.698 C 189.984 217.786,194.183 217.877,194.073 218.382 C 193.858 219.364,193.217 222.493,192.799 224.600 C 192.581 225.700,192.221 227.410,192.000 228.400 C 191.779 229.390,191.419 231.100,191.200 232.200 C 190.981 233.300,190.621 235.010,190.400 236.000 C 190.179 236.990,189.819 238.700,189.600 239.800 C 189.381 240.900,189.021 242.610,188.800 243.600 C 188.579 244.590,188.219 246.300,188.000 247.400 C 187.781 248.500,187.441 250.120,187.244 251.000 C 187.047 251.880,186.489 254.490,186.003 256.800 C 185.517 259.110,184.796 262.530,184.400 264.400 C 184.004 266.270,183.284 269.690,182.800 272.000 C 182.316 274.310,181.596 277.730,181.200 279.600 C 180.804 281.470,180.083 284.890,179.597 287.200 C 178.227 293.716,178.122 294.128,177.543 295.297 C 177.245 295.900,176.865 296.395,176.700 296.397 C 176.535 296.399,176.400 297.300,176.400 298.400 C 176.400 299.500,176.220 300.400,176.000 300.400 C 175.780 300.400,175.600 301.109,175.600 301.976 C 175.600 302.843,175.420 303.664,175.200 303.800 C 174.980 303.936,174.800 304.847,174.800 305.824 C 174.800 306.801,174.620 307.600,174.400 307.600 C 174.180 307.600,174.000 308.410,174.000 309.400 C 174.000 312.473,172.909 313.894,191.205 287.000 C 202.825 269.920,204.502 267.457,207.001 263.800 C 208.353 261.820,211.602 257.050,214.219 253.200 C 216.837 249.350,222.101 241.610,225.917 236.000 C 229.733 230.390,235.913 221.300,239.650 215.800 C 243.388 210.300,248.954 202.110,252.021 197.600 C 255.087 193.090,257.597 189.265,257.598 189.100 C 257.599 188.935,243.358 188.800,225.950 188.800 L 194.301 188.800 194.508 186.700 C 194.622 185.545,195.097 182.890,195.564 180.800 C 196.031 178.710,196.762 175.290,197.190 173.200 C 197.617 171.110,198.337 167.690,198.790 165.600 C 199.242 163.510,199.962 160.090,200.390 158.000 C 200.817 155.910,201.537 152.490,201.990 150.400 C 202.442 148.310,203.162 144.890,203.590 142.800 C 204.017 140.710,204.737 137.290,205.190 135.200 C 205.642 133.110,206.362 129.690,206.790 127.600 C 207.217 125.510,207.937 122.090,208.390 120.000 C 208.842 117.910,209.562 114.490,209.988 112.400 C 211.508 104.952,213.210 96.992,213.386 96.513 C 213.927 95.039,212.750 96.052,211.024 98.545 " stroke="none" fill="#fbdb5b" fill-rule="evenodd"></path><path id="path2" d="M227.600 73.439 C 227.600 73.806,227.284 74.397,226.897 74.753 C 226.511 75.109,225.944 75.889,225.637 76.486 C 225.330 77.084,224.927 77.478,224.740 77.363 C 224.553 77.247,224.400 77.523,224.400 77.976 C 224.400 78.429,224.220 78.800,224.000 78.800 C 223.780 78.800,223.600 79.070,223.600 79.400 C 223.600 79.730,223.420 80.000,223.200 80.000 C 222.980 80.000,222.800 80.230,222.800 80.512 C 222.800 80.793,222.440 81.283,222.000 81.600 C 221.560 81.917,221.200 82.420,221.200 82.717 C 221.200 83.449,220.200 84.400,219.429 84.400 C 218.997 84.400,218.800 84.776,218.800 85.600 C 218.800 86.533,218.622 86.800,218.000 86.800 C 217.378 86.800,217.200 87.067,217.200 88.000 C 217.200 88.660,217.020 89.200,216.800 89.200 C 216.580 89.200,216.400 89.518,216.400 89.907 C 216.400 90.296,215.977 91.241,215.461 92.007 C 214.944 92.773,214.424 93.850,214.305 94.400 C 214.186 94.950,213.691 97.290,213.204 99.600 C 212.718 101.910,211.996 105.330,211.600 107.200 C 211.204 109.070,210.510 112.400,210.057 114.600 C 209.604 116.800,208.842 120.400,208.363 122.600 C 207.885 124.800,207.358 127.320,207.193 128.200 C 206.874 129.900,205.356 137.123,204.755 139.800 C 204.557 140.680,204.237 142.210,204.043 143.200 C 203.628 145.317,202.070 152.704,201.555 155.000 C 201.357 155.880,201.037 157.410,200.843 158.400 C 200.428 160.517,198.870 167.904,198.355 170.200 C 198.157 171.080,197.837 172.610,197.643 173.600 C 197.340 175.146,196.597 178.694,195.174 185.400 C 194.988 186.280,194.827 187.225,194.817 187.500 C 194.804 187.896,201.417 188.000,226.600 188.000 C 256.626 188.000,258.399 188.039,258.381 188.700 C 258.370 189.085,256.314 192.370,253.812 196.000 C 251.309 199.630,246.269 207.010,242.612 212.400 C 238.954 217.790,233.938 225.170,231.464 228.800 C 228.991 232.430,224.461 239.090,221.397 243.600 C 218.333 248.110,214.529 253.690,212.943 256.000 C 211.357 258.310,207.067 264.610,203.410 270.000 C 196.692 279.903,192.462 286.116,182.032 301.400 C 178.879 306.020,176.008 310.294,175.650 310.897 C 175.293 311.501,174.763 311.996,174.473 311.997 C 174.148 311.999,174.034 312.276,174.175 312.721 C 174.301 313.118,174.139 313.793,173.815 314.221 C 173.491 314.649,173.220 315.765,173.213 316.700 C 173.205 317.690,173.011 318.400,172.748 318.400 C 172.454 318.400,172.375 318.893,172.524 319.808 C 172.650 320.583,172.598 321.708,172.409 322.308 C 172.220 322.909,171.977 324.173,171.868 325.119 L 171.671 326.838 172.736 325.433 C 173.321 324.661,174.025 324.023,174.300 324.015 C 174.575 324.007,174.800 323.764,174.800 323.475 C 174.800 323.187,175.160 322.564,175.600 322.092 C 176.040 321.620,176.400 321.046,176.400 320.817 C 176.400 320.588,176.580 320.400,176.800 320.400 C 177.020 320.400,177.200 320.130,177.200 319.800 C 177.200 319.470,177.380 319.200,177.600 319.200 C 177.820 319.200,178.000 318.930,178.000 318.600 C 178.000 318.270,178.180 318.000,178.400 318.000 C 178.620 318.000,178.800 317.770,178.800 317.488 C 178.800 317.207,179.160 316.717,179.600 316.400 C 180.040 316.083,180.400 315.543,180.400 315.200 C 180.400 314.857,180.760 314.317,181.200 314.000 C 181.640 313.683,182.000 313.227,182.000 312.987 C 182.000 312.747,182.321 312.202,182.713 311.775 C 183.105 311.349,183.764 310.280,184.177 309.400 C 184.591 308.520,187.415 304.110,190.453 299.600 C 201.151 283.720,208.715 272.595,209.098 272.178 C 209.311 271.946,211.838 268.256,214.712 263.978 C 217.587 259.700,220.537 255.570,221.269 254.800 C 222.001 254.030,222.855 252.905,223.168 252.300 C 223.480 251.695,223.885 251.200,224.068 251.200 C 224.250 251.200,224.400 250.964,224.400 250.675 C 224.400 250.387,224.760 249.764,225.200 249.292 C 225.640 248.820,226.000 248.246,226.000 248.017 C 226.000 247.788,226.180 247.600,226.400 247.600 C 226.620 247.600,226.800 247.330,226.800 247.000 C 226.800 246.670,226.980 246.400,227.200 246.400 C 227.420 246.400,227.600 246.130,227.600 245.800 C 227.600 245.470,227.780 245.200,228.000 245.200 C 228.220 245.200,228.400 244.930,228.400 244.600 C 228.400 244.270,228.580 244.000,228.800 244.000 C 229.020 244.000,229.200 243.719,229.200 243.376 C 229.200 243.033,229.380 242.864,229.600 243.000 C 229.820 243.136,230.000 242.943,230.000 242.571 C 230.000 242.198,230.316 241.603,230.703 241.247 C 231.089 240.891,231.660 240.105,231.970 239.500 C 232.281 238.895,232.685 238.400,232.868 238.400 C 233.050 238.400,233.200 238.164,233.200 237.875 C 233.200 237.587,233.515 237.002,233.900 236.575 C 234.285 236.149,234.855 235.305,235.168 234.700 C 235.480 234.095,235.885 233.600,236.068 233.600 C 236.250 233.600,236.400 233.364,236.400 233.075 C 236.400 232.787,236.715 232.202,237.100 231.775 C 237.485 231.349,238.055 230.505,238.368 229.900 C 238.680 229.295,239.085 228.800,239.268 228.800 C 239.450 228.800,239.600 228.530,239.600 228.200 C 239.600 227.870,239.780 227.600,240.000 227.600 C 240.220 227.600,240.400 227.330,240.400 227.000 C 240.400 226.670,240.580 226.400,240.800 226.400 C 241.020 226.400,241.200 226.119,241.200 225.776 C 241.200 225.433,241.380 225.264,241.600 225.400 C 241.820 225.536,242.000 225.316,242.000 224.912 C 242.000 224.507,242.360 223.917,242.800 223.600 C 243.240 223.283,243.600 222.747,243.600 222.409 C 243.600 221.757,250.290 211.493,250.862 211.267 C 251.048 211.193,251.200 210.912,251.200 210.642 C 251.200 210.372,251.522 209.802,251.916 209.375 C 252.310 208.949,255.221 204.730,258.384 200.000 C 261.547 195.270,264.244 191.310,264.377 191.200 C 264.933 190.739,269.600 183.629,269.600 183.241 C 269.600 182.951,262.161 182.755,245.900 182.618 C 232.865 182.508,218.735 182.316,214.500 182.192 L 206.800 181.967 206.800 180.183 C 206.800 179.202,206.980 178.400,207.200 178.400 C 207.420 178.400,207.600 177.500,207.600 176.400 C 207.600 175.300,207.780 174.400,208.000 174.400 C 208.220 174.400,208.400 173.590,208.400 172.600 C 208.400 171.610,208.543 170.800,208.719 170.800 C 208.894 170.800,209.246 169.045,209.501 166.900 C 209.756 164.755,210.153 162.145,210.383 161.100 C 211.026 158.171,211.488 156.004,211.981 153.600 C 212.526 150.939,213.143 147.992,213.635 145.700 C 213.836 144.765,214.164 143.235,214.365 142.300 C 214.565 141.365,214.925 139.655,215.165 138.500 C 215.404 137.345,215.796 135.455,216.035 134.300 C 216.275 133.145,216.627 131.480,216.818 130.600 C 217.009 129.720,217.369 128.010,217.618 126.800 C 218.126 124.329,218.601 122.102,219.218 119.300 C 219.448 118.255,219.800 116.590,220.000 115.600 C 220.200 114.610,220.536 112.990,220.746 112.000 C 221.830 106.912,222.074 105.675,222.273 104.270 C 222.392 103.429,222.740 102.645,223.045 102.527 C 223.414 102.386,223.600 101.658,223.600 100.357 C 223.600 99.281,223.780 98.400,224.000 98.400 C 224.220 98.400,224.400 97.590,224.400 96.600 C 224.400 95.610,224.580 94.800,224.800 94.800 C 225.020 94.800,225.200 93.900,225.200 92.800 C 225.200 91.700,225.380 90.800,225.600 90.800 C 225.820 90.800,226.000 89.990,226.000 89.000 C 226.000 88.010,226.180 87.200,226.400 87.200 C 226.620 87.200,226.800 86.289,226.800 85.176 C 226.800 83.929,226.953 83.248,227.200 83.400 C 227.447 83.552,227.600 82.871,227.600 81.624 C 227.600 80.511,227.780 79.600,228.000 79.600 C 228.220 79.600,228.400 78.689,228.400 77.576 C 228.400 76.329,228.553 75.648,228.800 75.800 C 229.033 75.944,229.200 75.542,229.200 74.838 C 229.200 74.038,228.929 73.483,228.400 73.200 C 227.749 72.851,227.600 72.896,227.600 73.439 " stroke="none" fill="#0a1135" fill-rule="evenodd"></path><path id="path3" d="M205.400 37.600 C 205.264 37.820,204.083 38.000,202.776 38.000 C 201.459 38.000,200.400 38.178,200.400 38.400 C 200.400 38.620,199.680 38.800,198.800 38.800 C 197.920 38.800,197.200 38.980,197.200 39.200 C 197.200 39.420,196.660 39.600,196.000 39.600 C 195.340 39.600,194.800 39.780,194.800 40.000 C 194.800 40.220,194.260 40.400,193.600 40.400 C 192.940 40.400,192.400 40.580,192.400 40.800 C 192.400 41.020,191.860 41.200,191.200 41.200 C 190.540 41.200,190.000 41.380,190.000 41.600 C 190.000 41.820,189.460 42.000,188.800 42.000 C 188.140 42.000,187.600 42.180,187.600 42.400 C 187.600 42.620,187.240 42.800,186.800 42.800 C 186.360 42.800,186.000 42.980,186.000 43.200 C 186.000 43.420,185.460 43.600,184.800 43.600 C 184.140 43.600,183.600 43.780,183.600 44.000 C 183.600 44.220,183.240 44.400,182.800 44.400 C 182.360 44.400,182.000 44.580,182.000 44.800 C 182.000 45.020,181.640 45.200,181.200 45.200 C 180.760 45.200,180.400 45.380,180.400 45.600 C 180.400 45.820,180.040 46.000,179.600 46.000 C 179.160 46.000,178.800 46.180,178.800 46.400 C 178.800 46.620,178.440 46.800,178.000 46.800 C 177.560 46.800,177.200 46.980,177.200 47.200 C 177.200 47.420,176.880 47.600,176.488 47.600 C 176.097 47.600,175.517 47.960,175.200 48.400 C 174.883 48.840,174.303 49.200,173.912 49.200 C 173.520 49.200,173.200 49.380,173.200 49.600 C 173.200 49.820,172.880 50.000,172.488 50.000 C 172.097 50.000,171.517 50.360,171.200 50.800 C 170.883 51.240,170.303 51.600,169.912 51.600 C 169.520 51.600,169.200 51.780,169.200 52.000 C 169.200 52.220,168.912 52.400,168.560 52.400 C 168.209 52.400,167.417 52.940,166.800 53.600 C 166.183 54.260,165.431 54.800,165.128 54.800 C 164.825 54.800,164.317 55.160,164.000 55.600 C 163.683 56.040,163.179 56.400,162.880 56.400 C 162.582 56.400,161.646 57.120,160.800 58.000 C 159.954 58.880,159.068 59.600,158.829 59.600 C 158.257 59.600,142.000 75.865,142.000 76.437 C 142.000 76.680,141.460 77.383,140.800 78.000 C 140.140 78.617,139.600 79.337,139.600 79.600 C 139.600 79.863,139.060 80.583,138.400 81.200 C 137.740 81.817,137.200 82.537,137.200 82.800 C 137.200 83.063,136.660 83.783,136.000 84.400 C 135.340 85.017,134.800 85.769,134.800 86.072 C 134.800 86.375,134.440 86.883,134.000 87.200 C 133.560 87.517,133.200 88.057,133.200 88.400 C 133.200 88.743,132.840 89.283,132.400 89.600 C 131.960 89.917,131.600 90.457,131.600 90.800 C 131.600 91.143,131.240 91.683,130.800 92.000 C 130.360 92.317,130.000 92.897,130.000 93.288 C 130.000 93.680,129.820 94.000,129.600 94.000 C 129.380 94.000,129.200 94.320,129.200 94.712 C 129.200 95.103,128.840 95.683,128.400 96.000 C 127.960 96.317,127.600 96.897,127.600 97.288 C 127.600 97.680,127.420 98.000,127.200 98.000 C 126.980 98.000,126.800 98.278,126.800 98.617 C 126.800 98.956,126.440 99.620,126.000 100.092 C 125.560 100.564,125.200 101.187,125.200 101.475 C 125.200 101.764,125.020 102.000,124.800 102.000 C 124.580 102.000,124.400 102.360,124.400 102.800 C 124.400 103.240,124.220 103.600,124.000 103.600 C 123.780 103.600,123.600 103.960,123.600 104.400 C 123.600 104.840,123.420 105.200,123.200 105.200 C 122.980 105.200,122.800 105.560,122.800 106.000 C 122.800 106.440,122.620 106.800,122.400 106.800 C 122.180 106.800,122.000 107.160,122.000 107.600 C 122.000 108.040,121.820 108.400,121.600 108.400 C 121.380 108.400,121.200 108.760,121.200 109.200 C 121.200 109.640,121.020 110.000,120.800 110.000 C 120.580 110.000,120.400 110.540,120.400 111.200 C 120.400 111.860,120.220 112.400,120.000 112.400 C 119.780 112.400,119.600 112.760,119.600 113.200 C 119.600 113.640,119.420 114.000,119.200 114.000 C 118.980 114.000,118.800 114.360,118.800 114.800 C 118.800 115.240,118.620 115.600,118.400 115.600 C 118.180 115.600,118.000 116.140,118.000 116.800 C 118.000 117.460,117.820 118.000,117.600 118.000 C 117.380 118.000,117.200 118.360,117.200 118.800 C 117.200 119.240,117.020 119.600,116.800 119.600 C 116.580 119.600,116.400 120.140,116.400 120.800 C 116.400 121.460,116.220 122.000,116.000 122.000 C 115.780 122.000,115.600 122.540,115.600 123.200 C 115.600 123.860,115.420 124.400,115.200 124.400 C 114.980 124.400,114.800 124.760,114.800 125.200 C 114.800 125.640,114.620 126.000,114.400 126.000 C 114.180 126.000,114.000 126.540,114.000 127.200 C 114.000 127.860,113.820 128.400,113.600 128.400 C 113.380 128.400,113.200 129.120,113.200 130.000 C 113.200 130.880,113.020 131.600,112.800 131.600 C 112.580 131.600,112.400 132.140,112.400 132.800 C 112.400 133.460,112.220 134.000,112.000 134.000 C 111.780 134.000,111.600 134.720,111.600 135.600 C 111.600 136.480,111.420 137.200,111.200 137.200 C 110.980 137.200,110.800 137.920,110.800 138.800 C 110.800 139.680,110.620 140.400,110.400 140.400 C 110.180 140.400,110.000 141.120,110.000 142.000 C 110.000 142.880,109.820 143.600,109.600 143.600 C 109.380 143.600,109.200 144.500,109.200 145.600 C 109.200 146.700,109.020 147.600,108.800 147.600 C 108.580 147.600,108.400 148.500,108.400 149.600 C 108.400 150.700,108.220 151.600,108.000 151.600 C 107.767 151.600,107.600 152.933,107.600 154.800 C 107.600 156.667,107.433 158.000,107.200 158.000 C 106.956 158.000,106.800 159.859,106.800 162.776 C 106.800 165.529,106.631 167.658,106.400 167.800 C 106.175 167.939,106.000 169.871,106.000 172.224 C 106.000 174.741,106.159 176.400,106.400 176.400 C 106.646 176.400,106.800 178.400,106.800 181.600 C 106.800 184.800,106.954 186.800,107.200 186.800 C 107.422 186.800,107.600 187.867,107.600 189.200 C 107.600 190.533,107.778 191.600,108.000 191.600 C 108.220 191.600,108.400 192.500,108.400 193.600 C 108.400 194.700,108.580 195.600,108.800 195.600 C 109.020 195.600,109.200 196.320,109.200 197.200 C 109.200 198.080,109.380 198.800,109.600 198.800 C 109.820 198.800,110.000 199.520,110.000 200.400 C 110.000 201.280,110.180 202.000,110.400 202.000 C 110.620 202.000,110.800 202.540,110.800 203.200 C 110.800 203.860,110.980 204.400,111.200 204.400 C 111.420 204.400,111.600 204.940,111.600 205.600 C 111.600 206.260,111.780 206.800,112.000 206.800 C 112.220 206.800,112.400 207.160,112.400 207.600 C 112.400 208.040,112.580 208.400,112.800 208.400 C 113.020 208.400,113.200 208.760,113.200 209.200 C 113.200 209.640,113.380 210.000,113.600 210.000 C 113.820 210.000,114.000 210.360,114.000 210.800 C 114.000 211.240,114.180 211.600,114.400 211.600 C 114.620 211.600,114.800 211.960,114.800 212.400 C 114.800 212.840,114.980 213.200,115.200 213.200 C 115.420 213.200,115.600 213.560,115.600 214.000 C 115.600 214.440,115.780 214.800,116.000 214.800 C 116.220 214.800,116.400 215.160,116.400 215.600 C 116.400 216.040,116.580 216.400,116.800 216.400 C 117.020 216.400,117.200 216.760,117.200 217.200 C 117.200 217.640,117.380 218.000,117.600 218.000 C 117.820 218.000,118.000 218.360,118.000 218.800 C 118.000 219.240,118.180 219.600,118.400 219.600 C 118.620 219.600,118.800 219.920,118.800 220.312 C 118.800 220.703,119.160 221.283,119.600 221.600 C 120.040 221.917,120.400 222.497,120.400 222.888 C 120.400 223.280,120.580 223.600,120.800 223.600 C 121.020 223.600,121.200 223.920,121.200 224.312 C 121.200 224.703,121.560 225.283,122.000 225.600 C 122.440 225.917,122.800 226.457,122.800 226.800 C 122.800 227.143,123.160 227.683,123.600 228.000 C 124.040 228.317,124.400 228.857,124.400 229.200 C 124.400 229.543,124.760 230.083,125.200 230.400 C 125.640 230.717,126.000 231.225,126.000 231.528 C 126.000 231.831,126.540 232.583,127.200 233.200 C 127.860 233.817,128.400 234.537,128.400 234.800 C 128.400 235.063,128.940 235.783,129.600 236.400 C 130.260 237.017,130.800 237.737,130.800 238.000 C 130.800 238.263,131.340 238.983,132.000 239.600 C 132.660 240.217,133.200 240.933,133.200 241.192 C 133.200 241.451,133.920 242.354,134.800 243.200 C 135.680 244.046,136.400 244.946,136.400 245.200 C 136.400 245.454,137.120 246.354,138.000 247.200 C 138.880 248.046,139.600 248.941,139.600 249.191 C 139.600 249.440,140.680 250.704,142.000 252.000 C 143.320 253.296,144.400 254.557,144.400 254.804 C 144.400 255.050,145.300 256.129,146.400 257.200 C 147.500 258.271,148.400 259.350,148.400 259.596 C 148.400 259.843,149.480 261.104,150.800 262.400 C 152.120 263.696,153.200 264.956,153.200 265.200 C 153.200 265.444,154.280 266.704,155.600 268.000 C 156.920 269.296,158.000 270.557,158.000 270.804 C 158.000 271.050,158.900 272.129,160.000 273.200 C 161.100 274.271,162.000 275.358,162.000 275.614 C 162.000 275.870,162.540 276.583,163.200 277.200 C 163.860 277.817,164.400 278.533,164.400 278.792 C 164.400 279.051,165.120 279.954,166.000 280.800 C 166.880 281.646,167.600 282.549,167.600 282.808 C 167.600 283.067,168.140 283.783,168.800 284.400 C 169.460 285.017,170.000 285.737,170.000 286.000 C 170.000 286.263,170.540 286.983,171.200 287.600 C 171.860 288.217,172.400 288.969,172.400 289.272 C 172.400 289.575,172.760 290.083,173.200 290.400 C 173.640 290.717,174.000 291.257,174.000 291.600 C 174.000 291.943,174.360 292.483,174.800 292.800 C 175.240 293.117,175.600 293.620,175.600 293.917 C 175.600 296.372,177.871 295.580,178.404 292.939 C 178.720 291.370,179.907 285.708,181.200 279.600 C 181.596 277.730,182.316 274.310,182.800 272.000 C 183.284 269.690,184.004 266.270,184.400 264.400 C 184.796 262.530,185.517 259.110,186.003 256.800 C 186.489 254.490,187.047 251.880,187.244 251.000 C 187.441 250.120,187.781 248.500,188.000 247.400 C 188.219 246.300,188.579 244.590,188.800 243.600 C 189.021 242.610,189.381 240.900,189.600 239.800 C 189.819 238.700,190.179 236.990,190.400 236.000 C 190.621 235.010,190.981 233.300,191.200 232.200 C 191.419 231.100,191.779 229.390,192.000 228.400 C 192.221 227.410,192.581 225.700,192.799 224.600 C 193.217 222.493,193.858 219.364,194.073 218.382 C 194.183 217.877,189.984 217.786,162.300 217.698 C 140.608 217.628,130.400 217.462,130.400 217.180 C 130.400 216.952,131.525 215.137,132.900 213.147 C 134.275 211.157,138.116 205.539,141.436 200.664 C 144.756 195.789,150.232 187.750,153.606 182.800 C 170.251 158.379,171.305 156.737,171.509 154.932 C 171.637 153.796,171.549 153.200,171.252 153.200 C 170.991 153.200,170.800 152.523,170.800 151.600 C 170.800 150.720,170.620 150.000,170.400 150.000 C 170.180 150.000,170.000 149.100,170.000 148.000 C 170.000 146.900,169.820 146.000,169.600 146.000 C 169.378 146.000,169.200 144.933,169.200 143.600 C 169.200 142.267,169.022 141.200,168.800 141.200 C 168.558 141.200,168.400 139.467,168.400 136.800 C 168.400 134.133,168.242 132.400,168.000 132.400 C 167.756 132.400,167.600 130.533,167.600 127.600 C 167.600 124.667,167.756 122.800,168.000 122.800 C 168.240 122.800,168.400 121.200,168.400 118.800 C 168.400 116.400,168.560 114.800,168.800 114.800 C 169.029 114.800,169.200 113.600,169.200 112.000 C 169.200 110.400,169.371 109.200,169.600 109.200 C 169.820 109.200,170.000 108.491,170.000 107.624 C 170.000 106.757,170.180 105.936,170.400 105.800 C 170.620 105.664,170.800 104.753,170.800 103.776 C 170.800 102.799,170.980 102.000,171.200 102.000 C 171.420 102.000,171.600 101.460,171.600 100.800 C 171.600 100.140,171.780 99.600,172.000 99.600 C 172.220 99.600,172.400 98.880,172.400 98.000 C 172.400 97.120,172.580 96.400,172.800 96.400 C 173.020 96.400,173.200 95.860,173.200 95.200 C 173.200 94.540,173.380 94.000,173.600 94.000 C 173.820 94.000,174.000 93.460,174.000 92.800 C 174.000 92.140,174.180 91.600,174.400 91.600 C 174.620 91.600,174.800 91.060,174.800 90.400 C 174.800 89.740,174.980 89.200,175.200 89.200 C 175.420 89.200,175.600 88.840,175.600 88.400 C 175.600 87.960,175.780 87.600,176.000 87.600 C 176.220 87.600,176.400 87.060,176.400 86.400 C 176.400 85.740,176.580 85.200,176.800 85.200 C 177.020 85.200,177.200 84.840,177.200 84.400 C 177.200 83.960,177.380 83.600,177.600 83.600 C 177.820 83.600,178.000 83.240,178.000 82.800 C 178.000 82.360,178.180 82.000,178.400 82.000 C 178.620 82.000,178.800 81.460,178.800 80.800 C 178.800 80.140,178.980 79.600,179.200 79.600 C 179.420 79.600,179.600 79.240,179.600 78.800 C 179.600 78.360,179.780 78.000,180.000 78.000 C 180.220 78.000,180.400 77.640,180.400 77.200 C 180.400 76.760,180.580 76.400,180.800 76.400 C 181.020 76.400,181.200 76.040,181.200 75.600 C 181.200 75.160,181.380 74.800,181.600 74.800 C 181.820 74.800,182.000 74.480,182.000 74.088 C 182.000 73.697,182.360 73.117,182.800 72.800 C 183.240 72.483,183.600 71.903,183.600 71.512 C 183.600 71.120,183.780 70.800,184.000 70.800 C 184.220 70.800,184.400 70.440,184.400 70.000 C 184.400 69.560,184.580 69.200,184.800 69.200 C 185.020 69.200,185.200 68.880,185.200 68.488 C 185.200 68.097,185.560 67.517,186.000 67.200 C 186.440 66.883,186.800 66.343,186.800 66.000 C 186.800 65.657,187.160 65.117,187.600 64.800 C 188.040 64.483,188.400 63.903,188.400 63.512 C 188.400 63.120,188.580 62.800,188.800 62.800 C 189.020 62.800,189.200 62.480,189.200 62.088 C 189.200 61.697,189.560 61.117,190.000 60.800 C 190.440 60.483,190.800 59.975,190.800 59.672 C 190.800 59.369,191.340 58.617,192.000 58.000 C 192.660 57.383,193.200 56.631,193.200 56.328 C 193.200 56.025,193.560 55.517,194.000 55.200 C 194.440 54.883,194.800 54.379,194.800 54.080 C 194.800 53.782,195.520 52.846,196.400 52.000 C 197.280 51.154,198.000 50.259,198.000 50.009 C 198.000 49.760,199.080 48.496,200.400 47.200 C 201.720 45.904,202.800 44.646,202.800 44.403 C 202.800 44.160,204.060 42.719,205.600 41.200 C 208.783 38.061,209.090 37.200,207.024 37.200 C 206.267 37.200,205.536 37.380,205.400 37.600 M118.800 258.000 C 118.800 260.933,118.956 262.800,119.200 262.800 C 119.422 262.800,119.600 263.867,119.600 265.200 C 119.600 266.533,119.778 267.600,120.000 267.600 C 120.220 267.600,120.400 268.500,120.400 269.600 C 120.400 270.700,120.580 271.600,120.800 271.600 C 121.020 271.600,121.200 272.320,121.200 273.200 C 121.200 274.080,121.380 274.800,121.600 274.800 C 121.820 274.800,122.000 275.520,122.000 276.400 C 122.000 277.280,122.180 278.000,122.400 278.000 C 122.620 278.000,122.800 278.540,122.800 279.200 C 122.800 279.860,122.980 280.400,123.200 280.400 C 123.420 280.400,123.600 280.760,123.600 281.200 C 123.600 281.640,123.780 282.000,124.000 282.000 C 124.220 282.000,124.400 282.540,124.400 283.200 C 124.400 283.860,124.580 284.400,124.800 284.400 C 125.020 284.400,125.200 284.760,125.200 285.200 C 125.200 285.640,125.380 286.000,125.600 286.000 C 125.820 286.000,126.000 286.360,126.000 286.800 C 126.000 287.240,126.180 287.600,126.400 287.600 C 126.620 287.600,126.800 288.016,126.800 288.525 C 126.800 289.033,127.160 289.836,127.600 290.308 C 128.040 290.780,128.400 291.444,128.400 291.783 C 128.400 292.122,128.580 292.400,128.800 292.400 C 129.020 292.400,129.200 292.760,129.200 293.200 C 129.200 293.640,129.380 294.000,129.600 294.000 C 129.820 294.000,130.000 294.320,130.000 294.712 C 130.000 295.103,130.360 295.683,130.800 296.000 C 131.240 296.317,131.600 296.857,131.600 297.200 C 131.600 297.543,131.960 298.083,132.400 298.400 C 132.840 298.717,133.200 299.257,133.200 299.600 C 133.200 299.943,133.560 300.483,134.000 300.800 C 134.440 301.117,134.800 301.625,134.800 301.928 C 134.800 302.231,135.340 302.983,136.000 303.600 C 136.660 304.217,137.200 304.930,137.200 305.186 C 137.200 305.442,138.100 306.529,139.200 307.600 C 140.300 308.671,141.200 309.746,141.200 309.988 C 141.200 310.230,143.000 312.215,145.200 314.400 C 147.400 316.585,149.200 318.562,149.200 318.795 C 149.200 319.028,152.080 322.090,155.600 325.600 C 159.120 329.110,162.000 332.180,162.000 332.422 C 162.000 332.665,162.720 333.554,163.600 334.400 C 164.480 335.246,165.200 336.182,165.200 336.480 C 165.200 336.779,165.560 337.283,166.000 337.600 C 166.440 337.917,166.800 338.457,166.800 338.800 C 166.800 339.143,167.160 339.683,167.600 340.000 C 168.040 340.317,168.400 340.857,168.400 341.200 C 168.400 341.543,168.760 342.083,169.200 342.400 C 169.670 342.739,170.000 343.435,170.000 344.088 C 170.000 344.700,170.180 345.200,170.400 345.200 C 170.620 345.200,170.800 345.560,170.800 346.000 C 170.800 346.440,170.980 346.800,171.200 346.800 C 171.420 346.800,171.600 347.340,171.600 348.000 C 171.600 348.660,171.780 349.200,172.000 349.200 C 172.220 349.200,172.400 350.100,172.400 351.200 C 172.400 352.300,172.580 353.200,172.800 353.200 C 173.033 353.200,173.200 354.533,173.200 356.400 C 173.200 358.267,173.033 359.600,172.800 359.600 C 172.580 359.600,172.400 360.140,172.400 360.800 C 172.400 361.867,172.533 362.000,173.600 362.000 C 174.667 362.000,174.800 361.867,174.800 360.800 C 174.800 360.140,174.980 359.600,175.200 359.600 C 175.420 359.600,175.600 359.240,175.600 358.800 C 175.600 358.360,175.780 358.000,176.000 358.000 C 176.220 358.000,176.400 357.460,176.400 356.800 C 176.400 356.140,176.580 355.600,176.800 355.600 C 177.020 355.600,177.200 354.880,177.200 354.000 C 177.200 353.120,177.380 352.400,177.600 352.400 C 177.820 352.400,178.000 351.680,178.000 350.800 C 178.000 349.920,178.180 349.200,178.400 349.200 C 178.637 349.200,178.800 347.733,178.800 345.600 C 178.800 343.467,178.963 342.000,179.200 342.000 C 179.420 342.000,179.600 341.381,179.600 340.624 C 179.600 339.867,179.420 339.136,179.200 339.000 C 178.980 338.864,178.800 337.503,178.800 335.976 C 178.800 334.392,178.628 333.200,178.400 333.200 C 178.180 333.200,178.000 332.480,178.000 331.600 C 178.000 330.720,177.820 330.000,177.600 330.000 C 177.380 330.000,177.200 329.460,177.200 328.800 C 177.200 328.140,177.020 327.600,176.800 327.600 C 176.580 327.600,176.400 327.240,176.400 326.800 C 176.400 326.360,176.220 326.000,176.000 326.000 C 175.780 326.000,175.600 325.640,175.600 325.200 C 175.600 323.722,174.077 324.267,172.692 326.240 L 171.400 328.080 171.264 326.947 C 171.190 326.324,171.313 325.181,171.539 324.407 C 172.259 321.937,172.233 319.264,171.481 318.386 C 171.106 317.949,170.800 317.395,170.800 317.156 C 170.800 316.917,170.260 316.217,169.600 315.600 C 168.940 314.983,168.400 314.273,168.400 314.020 C 168.400 313.768,167.140 312.319,165.600 310.800 C 164.060 309.281,162.800 307.849,162.800 307.617 C 162.800 307.069,148.137 292.400,147.589 292.400 C 147.074 292.400,144.400 289.764,144.400 289.256 C 144.400 289.053,142.060 286.521,139.200 283.630 C 136.340 280.740,134.000 278.186,134.000 277.956 C 134.000 277.726,133.280 276.846,132.400 276.000 C 131.520 275.154,130.800 274.251,130.800 273.992 C 130.800 273.733,130.260 273.017,129.600 272.400 C 128.940 271.783,128.400 271.031,128.400 270.728 C 128.400 270.425,128.040 269.917,127.600 269.600 C 127.160 269.283,126.800 268.743,126.800 268.400 C 126.800 268.057,126.440 267.517,126.000 267.200 C 125.560 266.883,125.200 266.303,125.200 265.912 C 125.200 265.520,125.020 265.200,124.800 265.200 C 124.580 265.200,124.400 264.840,124.400 264.400 C 124.400 263.960,124.220 263.600,124.000 263.600 C 123.780 263.600,123.600 263.240,123.600 262.800 C 123.600 262.360,123.420 262.000,123.200 262.000 C 122.980 262.000,122.800 261.640,122.800 261.200 C 122.800 260.760,122.620 260.400,122.400 260.400 C 122.180 260.400,122.000 259.860,122.000 259.200 C 122.000 258.540,121.820 258.000,121.600 258.000 C 121.380 258.000,121.200 257.460,121.200 256.800 C 121.200 256.140,121.020 255.600,120.800 255.600 C 120.580 255.600,120.400 255.060,120.400 254.400 C 120.400 253.467,120.222 253.200,119.600 253.200 C 118.844 253.200,118.800 253.467,118.800 258.000 M220.733 256.100 C 220.391 256.375,217.702 260.163,214.756 264.518 C 211.810 268.873,206.678 276.433,203.351 281.318 C 200.024 286.203,194.489 294.358,191.051 299.440 L 184.799 308.681 185.054 310.540 C 185.194 311.563,185.464 312.400,185.654 312.400 C 185.844 312.400,186.000 312.760,186.000 313.200 C 186.000 313.640,186.180 314.000,186.400 314.000 C 186.620 314.000,186.800 314.360,186.800 314.800 C 186.800 315.240,186.980 315.600,187.200 315.600 C 187.420 315.600,187.600 316.140,187.600 316.800 C 187.600 317.460,187.780 318.000,188.000 318.000 C 188.220 318.000,188.400 318.360,188.400 318.800 C 188.400 319.240,188.580 319.600,188.800 319.600 C 189.020 319.600,189.200 320.140,189.200 320.800 C 189.200 321.460,189.380 322.000,189.600 322.000 C 189.820 322.000,190.000 322.720,190.000 323.600 C 190.000 324.480,190.180 325.200,190.400 325.200 C 190.620 325.200,190.800 325.740,190.800 326.400 C 190.800 327.060,190.980 327.600,191.200 327.600 C 191.420 327.600,191.600 328.320,191.600 329.200 C 191.600 330.080,191.780 330.800,192.000 330.800 C 192.220 330.800,192.400 331.700,192.400 332.800 C 192.400 333.900,192.580 334.800,192.800 334.800 C 193.029 334.800,193.200 336.000,193.200 337.600 C 193.200 339.200,193.371 340.400,193.600 340.400 C 193.833 340.400,194.000 341.733,194.000 343.600 C 194.000 346.752,194.015 346.800,195.006 346.800 C 196.031 346.800,202.000 341.321,202.000 340.380 C 202.000 340.143,202.900 339.071,204.000 338.000 C 205.100 336.929,206.000 335.842,206.000 335.586 C 206.000 335.330,206.540 334.617,207.200 334.000 C 207.860 333.383,208.400 332.631,208.400 332.328 C 208.400 332.025,208.760 331.517,209.200 331.200 C 209.640 330.883,210.000 330.343,210.000 330.000 C 210.000 329.657,210.360 329.117,210.800 328.800 C 211.240 328.483,211.600 327.943,211.600 327.600 C 211.600 327.257,211.960 326.717,212.400 326.400 C 212.840 326.083,213.200 325.503,213.200 325.112 C 213.200 324.720,213.380 324.400,213.600 324.400 C 213.820 324.400,214.000 324.040,214.000 323.600 C 214.000 323.160,214.180 322.800,214.400 322.800 C 214.620 322.800,214.800 322.522,214.800 322.183 C 214.800 321.844,215.160 321.180,215.600 320.708 C 216.040 320.236,216.400 319.613,216.400 319.325 C 216.400 319.036,216.580 318.800,216.800 318.800 C 217.020 318.800,217.200 318.260,217.200 317.600 C 217.200 316.940,217.380 316.400,217.600 316.400 C 217.820 316.400,218.000 316.040,218.000 315.600 C 218.000 315.160,218.180 314.800,218.400 314.800 C 218.620 314.800,218.800 314.440,218.800 314.000 C 218.800 313.560,218.980 313.200,219.200 313.200 C 219.420 313.200,219.600 312.660,219.600 312.000 C 219.600 311.340,219.780 310.800,220.000 310.800 C 220.220 310.800,220.400 310.451,220.400 310.024 C 220.400 309.597,220.580 309.136,220.800 309.000 C 221.020 308.864,221.200 308.133,221.200 307.376 C 221.200 306.619,221.380 306.000,221.600 306.000 C 221.820 306.000,222.000 305.460,222.000 304.800 C 222.000 304.140,222.180 303.600,222.400 303.600 C 222.620 303.600,222.800 302.880,222.800 302.000 C 222.800 301.120,222.980 300.400,223.200 300.400 C 223.420 300.400,223.600 299.500,223.600 298.400 C 223.600 297.300,223.780 296.400,224.000 296.400 C 224.229 296.400,224.400 295.200,224.400 293.600 C 224.400 292.000,224.571 290.800,224.800 290.800 C 225.056 290.800,225.200 287.333,225.200 281.200 C 225.200 275.067,225.056 271.600,224.800 271.600 C 224.571 271.600,224.400 270.400,224.400 268.800 C 224.400 267.200,224.229 266.000,224.000 266.000 C 223.778 266.000,223.600 264.933,223.600 263.600 C 223.600 262.267,223.422 261.200,223.200 261.200 C 222.980 261.200,222.800 260.480,222.800 259.600 C 222.800 258.720,222.620 258.000,222.400 258.000 C 222.180 258.000,222.000 257.460,222.000 256.800 C 222.000 255.496,221.692 255.326,220.733 256.100 " stroke="none" fill="#fb1414" fill-rule="evenodd"></path><path id="path4" d="M228.300 71.358 C 227.381 72.054,227.414 72.673,228.400 73.200 C 228.840 73.435,229.200 73.892,229.200 74.214 C 229.200 74.536,229.390 74.800,229.622 74.800 C 230.162 74.800,229.949 71.106,229.400 70.945 C 229.180 70.880,228.685 71.066,228.300 71.358 M226.500 73.798 C 225.984 74.385,225.826 75.200,226.229 75.200 C 226.621 75.200,227.600 74.078,227.600 73.629 C 227.600 73.040,227.100 73.117,226.500 73.798 M224.880 76.220 C 224.593 76.545,224.476 76.999,224.618 77.229 C 224.779 77.490,225.084 77.374,225.426 76.924 C 226.394 75.647,225.922 75.039,224.880 76.220 M228.400 77.200 C 228.400 78.196,228.558 78.750,228.800 78.600 C 229.020 78.464,229.200 77.834,229.200 77.200 C 229.200 76.566,229.020 75.936,228.800 75.800 C 228.558 75.650,228.400 76.204,228.400 77.200 M223.300 78.598 C 222.699 79.281,222.648 80.000,223.200 80.000 C 223.420 80.000,223.600 79.730,223.600 79.400 C 223.600 79.070,223.780 78.800,224.000 78.800 C 224.220 78.800,224.400 78.620,224.400 78.400 C 224.400 77.837,223.889 77.929,223.300 78.598 M227.600 80.800 C 227.600 81.460,227.780 82.000,228.000 82.000 C 228.220 82.000,228.400 81.460,228.400 80.800 C 228.400 80.140,228.220 79.600,228.000 79.600 C 227.780 79.600,227.600 80.140,227.600 80.800 M221.660 81.042 C 220.931 81.866,221.400 82.257,222.181 81.476 C 222.521 81.136,222.800 80.754,222.800 80.629 C 222.800 80.209,222.206 80.424,221.660 81.042 M220.060 83.442 C 219.331 84.266,219.800 84.657,220.581 83.876 C 220.921 83.536,221.200 83.154,221.200 83.029 C 221.200 82.609,220.606 82.824,220.060 83.442 M226.800 84.576 C 226.800 85.359,226.980 86.000,227.200 86.000 C 227.420 86.000,227.600 85.471,227.600 84.824 C 227.600 84.177,227.420 83.536,227.200 83.400 C 226.962 83.253,226.800 83.729,226.800 84.576 M226.000 88.600 C 226.000 89.370,226.180 90.000,226.400 90.000 C 226.620 90.000,226.800 89.370,226.800 88.600 C 226.800 87.830,226.620 87.200,226.400 87.200 C 226.180 87.200,226.000 87.830,226.000 88.600 M225.200 92.424 C 225.200 93.404,225.358 93.949,225.600 93.800 C 225.820 93.664,226.000 92.933,226.000 92.176 C 226.000 91.419,225.820 90.800,225.600 90.800 C 225.380 90.800,225.200 91.531,225.200 92.424 M213.797 94.300 C 213.638 94.685,213.445 95.450,213.369 96.000 C 213.293 96.550,212.676 99.610,211.997 102.800 C 211.319 105.990,210.415 110.310,209.988 112.400 C 209.562 114.490,208.842 117.910,208.390 120.000 C 207.937 122.090,207.217 125.510,206.790 127.600 C 206.362 129.690,205.642 133.110,205.190 135.200 C 204.737 137.290,204.017 140.710,203.590 142.800 C 203.162 144.890,202.442 148.310,201.990 150.400 C 201.537 152.490,200.817 155.910,200.390 158.000 C 199.962 160.090,199.242 163.510,198.790 165.600 C 198.337 167.690,197.617 171.110,197.190 173.200 C 196.762 175.290,196.031 178.710,195.564 180.800 C 195.097 182.890,194.622 185.545,194.508 186.700 L 194.301 188.800 225.950 188.800 C 243.358 188.800,257.599 188.935,257.598 189.100 C 257.597 189.265,255.087 193.090,252.021 197.600 C 248.954 202.110,243.388 210.300,239.650 215.800 C 235.913 221.300,229.733 230.390,225.917 236.000 C 222.101 241.610,216.837 249.350,214.219 253.200 C 211.602 257.050,208.353 261.820,207.001 263.800 C 204.502 267.457,202.825 269.920,191.205 287.000 C 176.865 308.079,174.667 311.188,173.948 311.417 C 173.371 311.600,173.203 312.037,173.213 313.327 C 173.225 314.887,173.265 314.948,173.815 314.221 C 174.139 313.793,174.301 313.118,174.175 312.721 C 174.034 312.276,174.148 311.999,174.473 311.997 C 174.763 311.996,175.293 311.501,175.650 310.897 C 176.008 310.294,178.879 306.020,182.032 301.400 C 192.462 286.116,196.692 279.903,203.410 270.000 C 207.067 264.610,211.357 258.310,212.943 256.000 C 214.529 253.690,218.333 248.110,221.397 243.600 C 224.461 239.090,228.991 232.430,231.464 228.800 C 233.938 225.170,238.954 217.790,242.612 212.400 C 246.269 207.010,251.309 199.630,253.812 196.000 C 256.314 192.370,258.370 189.085,258.381 188.700 C 258.399 188.039,256.626 188.000,226.600 188.000 C 201.417 188.000,194.804 187.896,194.817 187.500 C 194.827 187.225,194.988 186.280,195.174 185.400 C 196.597 178.694,197.340 175.146,197.643 173.600 C 197.837 172.610,198.157 171.080,198.355 170.200 C 198.870 167.904,200.428 160.517,200.843 158.400 C 201.037 157.410,201.357 155.880,201.555 155.000 C 202.070 152.704,203.628 145.317,204.043 143.200 C 204.237 142.210,204.557 140.680,204.755 139.800 C 205.356 137.123,206.874 129.900,207.193 128.200 C 207.358 127.320,207.885 124.800,208.363 122.600 C 208.842 120.400,209.604 116.800,210.057 114.600 C 210.510 112.400,211.204 109.070,211.600 107.200 C 211.996 105.330,212.718 101.910,213.204 99.600 C 213.691 97.290,214.180 94.995,214.291 94.500 C 214.531 93.433,214.208 93.303,213.797 94.300 M224.400 96.000 C 224.400 96.660,224.580 97.200,224.800 97.200 C 225.020 97.200,225.200 96.660,225.200 96.000 C 225.200 95.340,225.020 94.800,224.800 94.800 C 224.580 94.800,224.400 95.340,224.400 96.000 M223.600 99.800 C 223.600 100.570,223.780 101.200,224.000 101.200 C 224.220 101.200,224.400 100.570,224.400 99.800 C 224.400 99.030,224.220 98.400,224.000 98.400 C 223.780 98.400,223.600 99.030,223.600 99.800 M222.667 102.667 C 222.068 103.266,222.373 104.120,223.000 103.600 C 223.330 103.326,223.600 102.944,223.600 102.751 C 223.600 102.337,223.047 102.287,222.667 102.667 M221.800 106.400 C 221.650 106.873,221.617 107.350,221.727 107.460 C 221.837 107.570,222.050 107.273,222.200 106.800 C 222.350 106.327,222.383 105.850,222.273 105.740 C 222.163 105.630,221.950 105.927,221.800 106.400 M221.029 110.229 C 220.881 110.815,220.838 111.372,220.932 111.466 C 221.027 111.560,221.224 111.158,221.371 110.571 C 221.519 109.985,221.562 109.428,221.468 109.334 C 221.373 109.240,221.176 109.642,221.029 110.229 M220.200 114.000 C 220.050 114.473,220.017 114.950,220.127 115.060 C 220.237 115.170,220.450 114.873,220.600 114.400 C 220.750 113.927,220.783 113.450,220.673 113.340 C 220.563 113.230,220.350 113.527,220.200 114.000 M218.600 121.600 C 218.450 122.073,218.417 122.550,218.527 122.660 C 218.637 122.770,218.850 122.473,219.000 122.000 C 219.150 121.527,219.183 121.050,219.073 120.940 C 218.963 120.830,218.750 121.127,218.600 121.600 M217.829 125.429 C 217.681 126.015,217.638 126.572,217.732 126.666 C 217.827 126.760,218.024 126.358,218.171 125.771 C 218.319 125.185,218.362 124.628,218.268 124.534 C 218.173 124.440,217.976 124.842,217.829 125.429 M217.000 129.200 C 216.850 129.673,216.817 130.150,216.927 130.260 C 217.037 130.370,217.250 130.073,217.400 129.600 C 217.550 129.127,217.583 128.650,217.473 128.540 C 217.363 128.430,217.150 128.727,217.000 129.200 M216.229 133.029 C 216.081 133.615,216.038 134.172,216.132 134.266 C 216.227 134.360,216.424 133.958,216.571 133.371 C 216.719 132.785,216.762 132.228,216.668 132.134 C 216.573 132.040,216.376 132.442,216.229 133.029 M215.400 136.800 C 215.250 137.273,215.217 137.750,215.327 137.860 C 215.437 137.970,215.650 137.673,215.800 137.200 C 215.950 136.727,215.983 136.250,215.873 136.140 C 215.763 136.030,215.550 136.327,215.400 136.800 M214.629 140.629 C 214.481 141.215,214.438 141.772,214.532 141.866 C 214.627 141.960,214.824 141.558,214.971 140.971 C 215.119 140.385,215.162 139.828,215.068 139.734 C 214.973 139.640,214.776 140.042,214.629 140.629 M213.800 144.400 C 213.650 144.873,213.617 145.350,213.727 145.460 C 213.837 145.570,214.050 145.273,214.200 144.800 C 214.350 144.327,214.383 143.850,214.273 143.740 C 214.163 143.630,213.950 143.927,213.800 144.400 M212.200 152.000 C 212.050 152.473,212.017 152.950,212.127 153.060 C 212.237 153.170,212.450 152.873,212.600 152.400 C 212.750 151.927,212.783 151.450,212.673 151.340 C 212.563 151.230,212.350 151.527,212.200 152.000 M210.600 159.600 C 210.450 160.073,210.417 160.550,210.527 160.660 C 210.637 160.770,210.850 160.473,211.000 160.000 C 211.150 159.527,211.183 159.050,211.073 158.940 C 210.963 158.830,210.750 159.127,210.600 159.600 M209.467 166.667 C 209.045 167.088,209.156 169.200,209.600 169.200 C 209.820 169.200,210.000 168.570,210.000 167.800 C 210.000 166.361,209.927 166.206,209.467 166.667 M208.400 172.000 C 208.400 172.660,208.580 173.200,208.800 173.200 C 209.020 173.200,209.200 172.660,209.200 172.000 C 209.200 171.340,209.020 170.800,208.800 170.800 C 208.580 170.800,208.400 171.340,208.400 172.000 M207.600 175.800 C 207.600 176.570,207.780 177.200,208.000 177.200 C 208.220 177.200,208.400 176.570,208.400 175.800 C 208.400 175.030,208.220 174.400,208.000 174.400 C 207.780 174.400,207.600 175.030,207.600 175.800 M206.800 179.800 C 206.800 180.570,206.980 181.200,207.200 181.200 C 207.420 181.200,207.600 180.570,207.600 179.800 C 207.600 179.030,207.420 178.400,207.200 178.400 C 206.980 178.400,206.800 179.030,206.800 179.800 M231.000 182.691 C 252.692 182.968,270.000 182.972,270.000 182.700 C 270.000 182.535,259.335 182.441,246.300 182.492 C 233.265 182.542,226.380 182.632,231.000 182.691 M242.500 223.798 C 241.984 224.385,241.826 225.200,242.229 225.200 C 242.621 225.200,243.600 224.078,243.600 223.629 C 243.600 223.040,243.100 223.117,242.500 223.798 M241.200 225.776 C 241.200 226.119,241.020 226.400,240.800 226.400 C 240.580 226.400,240.400 226.670,240.400 227.000 C 240.400 227.330,240.220 227.600,240.000 227.600 C 239.780 227.600,239.600 227.870,239.600 228.200 C 239.600 228.530,239.463 228.800,239.296 228.800 C 238.864 228.800,237.899 230.432,238.170 230.704 C 238.443 230.976,240.399 228.770,240.400 228.188 C 240.400 227.962,240.760 227.517,241.200 227.200 C 242.065 226.576,242.239 225.795,241.600 225.400 C 241.380 225.264,241.200 225.433,241.200 225.776 M236.869 232.039 C 236.580 232.500,236.438 232.972,236.553 233.087 C 236.828 233.361,238.000 232.180,238.000 231.629 C 238.000 230.932,237.431 231.138,236.869 232.039 M235.269 234.439 C 234.980 234.900,234.838 235.372,234.953 235.487 C 235.228 235.761,236.400 234.580,236.400 234.029 C 236.400 233.332,235.831 233.538,235.269 234.439 M233.669 236.839 C 233.380 237.300,233.238 237.772,233.353 237.887 C 233.628 238.161,234.800 236.980,234.800 236.429 C 234.800 235.732,234.231 235.938,233.669 236.839 M232.069 239.239 C 231.780 239.700,231.638 240.172,231.753 240.287 C 232.028 240.561,233.200 239.380,233.200 238.829 C 233.200 238.132,232.631 238.338,232.069 239.239 M230.500 241.398 C 229.984 241.985,229.826 242.800,230.229 242.800 C 230.621 242.800,231.600 241.678,231.600 241.229 C 231.600 240.640,231.100 240.717,230.500 241.398 M229.200 243.376 C 229.200 243.719,229.020 244.000,228.800 244.000 C 228.580 244.000,228.400 244.270,228.400 244.600 C 228.400 244.930,228.220 245.200,228.000 245.200 C 227.780 245.200,227.600 245.470,227.600 245.800 C 227.600 246.130,227.420 246.400,227.200 246.400 C 226.980 246.400,226.800 246.670,226.800 247.000 C 226.800 247.330,226.620 247.600,226.400 247.600 C 226.180 247.600,226.000 247.870,226.000 248.200 C 226.000 248.530,225.863 248.800,225.696 248.800 C 225.264 248.800,224.299 250.432,224.570 250.704 C 224.867 251.001,226.799 248.745,226.800 248.100 C 226.800 247.825,226.950 247.600,227.132 247.600 C 227.315 247.600,227.719 247.105,228.030 246.500 C 228.340 245.895,228.911 245.109,229.297 244.753 C 230.085 244.028,230.198 243.370,229.600 243.000 C 229.380 242.864,229.200 243.033,229.200 243.376 M223.269 252.039 C 222.980 252.500,222.838 252.972,222.953 253.087 C 223.228 253.361,224.400 252.180,224.400 251.629 C 224.400 250.932,223.831 251.138,223.269 252.039 M220.758 255.338 C 219.965 256.252,217.104 260.321,214.400 264.380 C 211.696 268.438,209.309 271.948,209.097 272.180 C 208.885 272.411,205.846 276.830,202.344 282.000 C 183.880 309.260,182.899 310.800,183.992 310.800 C 184.208 310.800,184.501 310.305,184.643 309.700 C 184.888 308.658,189.579 301.541,203.351 281.318 C 206.678 276.433,211.810 268.873,214.756 264.518 C 217.702 260.163,220.340 256.420,220.618 256.200 C 220.896 255.980,221.500 255.535,221.962 255.212 C 222.760 254.651,223.134 253.558,222.500 253.638 C 222.335 253.658,221.551 254.423,220.758 255.338 M182.469 312.039 C 182.180 312.500,182.038 312.972,182.153 313.087 C 182.428 313.361,183.600 312.180,183.600 311.629 C 183.600 310.932,183.031 311.138,182.469 312.039 M180.900 314.198 C 180.384 314.785,180.226 315.600,180.629 315.600 C 181.021 315.600,182.000 314.478,182.000 314.029 C 182.000 313.440,181.500 313.517,180.900 314.198 M172.400 317.000 C 172.400 317.770,172.580 318.400,172.800 318.400 C 173.020 318.400,173.200 317.770,173.200 317.000 C 173.200 316.230,173.020 315.600,172.800 315.600 C 172.580 315.600,172.400 316.230,172.400 317.000 M179.300 316.598 C 179.025 316.911,178.800 317.354,178.800 317.583 C 178.800 317.812,178.620 318.000,178.400 318.000 C 178.180 318.000,178.000 318.270,178.000 318.600 C 178.000 318.930,177.820 319.200,177.600 319.200 C 177.380 319.200,177.200 319.470,177.200 319.800 C 177.200 320.130,177.020 320.400,176.800 320.400 C 176.580 320.400,176.400 320.670,176.400 321.000 C 176.400 321.330,176.263 321.600,176.096 321.600 C 175.664 321.600,174.699 323.232,174.970 323.504 C 175.267 323.801,177.199 321.545,177.200 320.900 C 177.200 320.625,177.350 320.400,177.532 320.400 C 177.715 320.400,178.119 319.905,178.430 319.300 C 178.740 318.695,179.311 317.909,179.697 317.553 C 180.410 316.897,180.648 315.987,180.100 316.015 C 179.935 316.024,179.575 316.286,179.300 316.598 M172.044 321.200 C 172.062 322.861,172.094 322.916,172.460 321.915 C 172.727 321.184,172.721 320.597,172.440 320.115 C 172.109 319.546,172.028 319.767,172.044 321.200 M171.452 324.500 C 171.104 325.797,171.145 328.081,171.512 327.855 C 171.821 327.663,172.141 323.600,171.847 323.600 C 171.762 323.600,171.585 324.005,171.452 324.500 M172.853 325.242 C 171.535 326.909,171.939 326.983,173.443 325.349 C 174.127 324.607,174.487 324.010,174.243 324.022 C 174.000 324.034,173.374 324.583,172.853 325.242 " stroke="none" fill="#876e41" fill-rule="evenodd"></path></g></svg>